SerifasText-300.ufo
<glyph name="C" format="1">
  <advance width="708"/>
  <unicode hex="0043"/>
  <outline>
    <contour>
      <point x="657" y="94" type="line"/>
      <point x="597" y="18"/>
      <point x="517" y="-18"/>
      <point x="381" y="-18" type="curve" smooth="yes"/>
      <point x="159" y="-18"/>
      <point x="61" y="107"/>
      <point x="61" y="381" type="curve" smooth="yes"/>
      <point x="61" y="649"/>
      <point x="161" y="760"/>
      <point x="400" y="760" type="curve" smooth="yes"/>
      <point x="502" y="760"/>
      <point x="591" y="738"/>
      <point x="644" y="705" type="curve"/>
      <point x="618" y="469" type="line"/>
      <point x="583" y="469" type="line"/>
      <point x="546" y="710" type="line"/>
      <point x="608" y="632" type="line"/>
      <point x="551" y="667"/>
      <point x="475" y="687"/>
      <point x="391" y="687" type="curve" smooth="yes"/>
      <point x="255" y="687"/>
      <point x="145" y="594"/>
      <point x="143" y="432" type="curve" smooth="yes"/>
      <point x="141" y="161"/>
      <point x="211" y="55"/>
      <point x="381" y="54" type="curve" smooth="yes"/>
      <point x="493" y="54"/>
      <point x="555" y="96"/>
      <point x="599" y="156" type="curve"/>
    </contour>
  </outline>
</glyph>
<glyph name="D" format="1">
  <advance width="754"/>
  <unicode hex="0044"/>
  <outline>
    <contour>
      <point x="317" y="-1" type="line" smooth="yes"/>
      <point x="591" y="-2"/>
      <point x="696" y="104"/>
      <point x="696" y="370" type="curve" smooth="yes"/>
      <point x="696" y="638"/>
      <point x="595" y="740"/>
      <point x="327" y="740" type="curve" smooth="yes"/>
      <point x="54" y="740" type="line"/>
      <point x="54" y="670" type="line"/>
      <point x="191" y="670" type="line"/>
      <point x="128" y="706" type="line"/>
      <point x="128" y="57" type="line"/>
      <point x="162" y="81" type="line"/>
      <point x="54" y="56" type="line"/>
      <point x="54" y="0" type="line"/>
    </contour>
    <contour>
      <point x="243" y="671" type="line" smooth="yes"/>
      <point x="502" y="675"/>
      <point x="617" y="640"/>
      <point x="617" y="352" type="curve" smooth="yes"/>
      <point x="617" y="96"/>
      <point x="502" y="63"/>
      <point x="242" y="74" type="curve" smooth="yes"/>
      <point x="163" y="77" type="line"/>
      <point x="198" y="45" type="line"/>
      <point x="198" y="714" type="line"/>
      <point x="174" y="670" type="line"/>
    </contour>
  </outline>
</glyph>
<glyph name="E" format="1">
  <advance width="668"/>
  <unicode hex="0045"/>
  <outline>
    <contour>
      <point x="155" y="330" type="line"/>
      <point x="155" y="417" type="line"/>
      <point x="467" y="396" type="line"/>
      <point x="467" y="343" type="line"/>
    </contour>
    <contour>
      <point x="518" y="39" type="line"/>
      <point x="568" y="235" type="line"/>
      <point x="608" y="235" type="line"/>
      <point x="608" y="0" type="line"/>
      <point x="50" y="0" type="line"/>
      <point x="50" y="51" type="line"/>
      <point x="153" y="79" type="line"/>
      <point x="124" y="41" type="line"/>
      <point x="124" y="692" type="line"/>
      <point x="154" y="662" type="line"/>
      <point x="50" y="662" type="line"/>
      <point x="50" y="740" type="line"/>
      <point x="594" y="740" type="line"/>
      <point x="586" y="516" type="line"/>
      <point x="543" y="516" type="line"/>
      <point x="516" y="700" type="line"/>
      <point x="549" y="668" type="line"/>
      <point x="161" y="668" type="line"/>
      <point x="200" y="705" type="line"/>
      <point x="200" y="43" type="line"/>
      <point x="162" y="69" type="line"/>
      <point x="550" y="69" type="line"/>
    </contour>
  </outline>
</glyph>
<glyph name="F" format="1">
  <advance width="639"/>
  <unicode hex="0046"/>
  <outline>
    <contour>
      <point x="155" y="316" type="line"/>
      <point x="155" y="403" type="line"/>
      <point x="477" y="382" type="line"/>
      <point x="477" y="329" type="line"/>
    </contour>
    <contour>
      <point x="393" y="0" type="line"/>
      <point x="50" y="0" type="line"/>
      <point x="50" y="64" type="line"/>
      <point x="153" y="92" type="line"/>
      <point x="124" y="54" type="line"/>
      <point x="124" y="692" type="line"/>
      <point x="154" y="662" type="line"/>
      <point x="50" y="662" type="line"/>
      <point x="50" y="740" type="line"/>
      <point x="604" y="740" type="line"/>
      <point x="596" y="506" type="line"/>
      <point x="547" y="506" type="line"/>
      <point x="516" y="700" type="line"/>
      <point x="553" y="668" type="line"/>
      <point x="161" y="668" type="line"/>
      <point x="200" y="705" type="line"/>
      <point x="200" y="44" type="line"/>
      <point x="166" y="92" type="line"/>
      <point x="393" y="64" type="line"/>
    </contour>
  </outline>
</glyph>
<glyph name="G" format="1">
  <advance width="758"/>
  <unicode hex="0047"/>
  <outline>
    <contour>
      <point x="597" y="83" type="line"/>
      <point x="597" y="315" type="line"/>
      <point x="626" y="274" type="line"/>
      <point x="429" y="282" type="line"/>
      <point x="429" y="344" type="line"/>
      <point x="676" y="354" type="line"/>
      <point x="676" y="148" type="line"/>
      <point x="637" y="48"/>
      <point x="547" y="-18"/>
      <point x="384" y="-18" type="curve" smooth="yes"/>
      <point x="161" y="-18"/>
      <point x="64" y="107"/>
      <point x="64" y="381" type="curve" smooth="yes"/>
      <point x="64" y="651"/>
      <point x="163" y="760"/>
      <point x="403" y="760" type="curve"/>
      <point x="505" y="760"/>
      <point x="591" y="738"/>
      <point x="644" y="705" type="curve"/>
      <point x="618" y="505" type="line"/>
      <point x="584" y="505" type="line"/>
      <point x="533" y="706" type="line"/>
      <point x="580" y="630" type="line"/>
      <point x="525" y="673"/>
      <point x="473" y="686"/>
      <point x="392" y="686" type="curve" smooth="yes"/>
      <point x="241" y="686"/>
      <point x="150" y="585"/>
      <point x="148" y="427" type="curve" smooth="yes"/>
      <point x="144" y="134"/>
      <point x="244" y="52"/>
      <point x="384" y="52" type="curve" smooth="yes"/>
      <point x="480" y="52"/>
      <point x="567" y="97"/>
      <point x="604" y="179" type="curve"/>
    </contour>
  </outline>
</glyph>
<glyph name="H" format="1">
  <advance width="823"/>
  <unicode hex="0048"/>
  <outline>
    <contour>
      <point x="172" y="347" type="line"/>
      <point x="172" y="416" type="line"/>
      <point x="650" y="416" type="line"/>
      <point x="650" y="347" type="line"/>
    </contour>
    <contour>
      <point x="200" y="706" type="line"/>
      <point x="200" y="49" type="line"/>
      <point x="149" y="78" type="line"/>
      <point x="275" y="78" type="line"/>
      <point x="275" y="0" type="line"/>
      <point x="50" y="0" type="line"/>
      <point x="50" y="56" type="line"/>
      <point x="158" y="85" type="line"/>
      <point x="124" y="57" type="line"/>
      <point x="124" y="698" type="line"/>
      <point x="187" y="662" type="line"/>
      <point x="50" y="662" type="line"/>
      <point x="50" y="740" type="line"/>
      <point x="275" y="740" type="line"/>
      <point x="275" y="684" type="line"/>
      <point x="172" y="655" type="line"/>
    </contour>
    <contour>
      <point x="699" y="701" type="line"/>
      <point x="699" y="45" type="line"/>
      <point x="636" y="78" type="line"/>
      <point x="773" y="78" type="line"/>
      <point x="773" y="0" type="line"/>
      <point x="548" y="0" type="line"/>
      <point x="548" y="56" type="line"/>
      <point x="651" y="85" type="line"/>
      <point x="623" y="57" type="line"/>
      <point x="623" y="694" type="line"/>
      <point x="674" y="662" type="line"/>
      <point x="548" y="662" type="line"/>
      <point x="548" y="740" type="line"/>
      <point x="773" y="740" type="line"/>
      <point x="773" y="684" type="line"/>
      <point x="665" y="655" type="line"/>
    </contour>
  </outline>
</glyph>
<glyph name="I" format="1">
  <advance width="424"/>
  <unicode hex="0049"/>
  <outline>
    <contour>
      <point x="248" y="27" type="line"/>
      <point x="215" y="78" type="line"/>
      <point x="356" y="78" type="line"/>
      <point x="356" y="0" type="line"/>
      <point x="68" y="0" type="line"/>
      <point x="68" y="56" type="line"/>
      <point x="200" y="85" type="line"/>
      <point x="177" y="39" type="line"/>
      <point x="177" y="694" type="line"/>
      <point x="201" y="662" type="line"/>
      <point x="68" y="662" type="line"/>
      <point x="68" y="740" type="line"/>
      <point x="356" y="740" type="line"/>
      <point x="356" y="684" type="line"/>
      <point x="224" y="655" type="line"/>
      <point x="248" y="701" type="line"/>
    </contour>
  </outline>
</glyph>
<glyph name="L" format="1">
  <advance width="658"/>
  <unicode hex="004C"/>
  <outline>
    <contour>
      <point x="164" y="70" type="line"/>
      <point x="577" y="70" type="line"/>
      <point x="512" y="33" type="line"/>
      <point x="566" y="282" type="line"/>
      <point x="606" y="282" type="line"/>
      <point x="606" y="2" type="line"/>
      <point x="54" y="0" type="line"/>
      <point x="54" y="46" type="line"/>
      <point x="162" y="75" type="line"/>
      <point x="128" y="47" type="line"/>
      <point x="128" y="698" type="line"/>
      <point x="191" y="662" type="line"/>
      <point x="54" y="662" type="line"/>
      <point x="54" y="740" type="line"/>
      <point x="413" y="740" type="line"/>
      <point x="415" y="681" type="line"/>
      <point x="178" y="656" type="line"/>
      <point x="204" y="706" type="line"/>
      <point x="204" y="39" type="line"/>
    </contour>
  </outline>
</glyph>
<glyph name="N" format="1">
  <advance width="823"/>
  <unicode hex="004E"/>
  <outline>
    <contour>
      <point x="608" y="-1" type="line"/>
      <point x="187" y="664" type="line"/>
      <point x="194" y="697" type="line"/>
      <point x="194" y="49" type="line"/>
      <point x="159" y="78" type="line"/>
      <point x="319" y="78" type="line"/>
      <point x="319" y="0" type="line"/>
      <point x="50" y="0" type="line"/>
      <point x="50" y="56" type="line"/>
      <point x="158" y="85" type="line"/>
      <point x="124" y="57" type="line"/>
      <point x="124" y="698" type="line"/>
      <point x="179" y="662" type="line"/>
      <point x="50" y="662" type="line"/>
      <point x="50" y="740" type="line"/>
      <point x="237" y="740" type="line"/>
      <point x="625" y="127" type="line"/>
      <point x="618" y="126" type="line"/>
      <point x="617" y="694" type="line"/>
      <point x="640" y="662" type="line"/>
      <point x="534" y="662" type="line"/>
      <point x="534" y="740" type="line"/>
      <point x="803" y="740" type="line"/>
      <point x="803" y="684" type="line"/>
      <point x="648" y="655" type="line"/>
      <point x="682" y="701" type="line"/>
      <point x="682" y="0" type="line"/>
    </contour>
  </outline>
</glyph>
<glyph name="O" format="1">
  <advance width="758"/>
  <unicode hex="004F"/>
  <outline>
    <contour>
      <point x="374" y="-18" type="curve" smooth="yes"/>
      <point x="153" y="-18"/>
      <point x="57" y="105"/>
      <point x="57" y="375" type="curve" smooth="yes"/>
      <point x="57" y="650"/>
      <point x="157" y="759"/>
      <point x="384" y="759" type="curve" smooth="yes"/>
      <point x="606" y="759"/>
      <point x="702" y="634"/>
      <point x="702" y="364" type="curve" smooth="yes"/>
      <point x="702" y="89"/>
      <point x="602" y="-18"/>
    </contour>
    <contour>
      <point x="385" y="687" type="curve" smooth="yes"/>
      <point x="214" y="687"/>
      <point x="140" y="564"/>
      <point x="137" y="415" type="curve" smooth="yes"/>
      <point x="133" y="164"/>
      <point x="211" y="52"/>
      <point x="374" y="52" type="curve" smooth="yes"/>
      <point x="545" y="52"/>
      <point x="619" y="175"/>
      <point x="622" y="324" type="curve" smooth="yes"/>
      <point x="626" y="575"/>
      <point x="548" y="687"/>
    </contour>
  </outline>
</glyph>
<glyph name="P" format="1">
  <advance width="684"/>
  <unicode hex="0050"/>
  <outline>
    <contour>
      <point x="359" y="668" type="curve"/>
      <point x="178" y="667" type="line"/>
      <point x="198" y="706" type="line"/>
      <point x="198" y="49" type="line"/>
      <point x="155" y="78" type="line"/>
      <point x="367" y="78" type="line"/>
      <point x="367" y="0" type="line"/>
      <point x="50" y="0" type="line"/>
      <point x="50" y="56" type="line"/>
      <point x="158" y="85" type="line"/>
      <point x="124" y="57" type="line"/>
      <point x="124" y="698" type="line"/>
      <point x="187" y="662" type="line"/>
      <point x="50" y="662" type="line"/>
      <point x="50" y="740" type="line"/>
      <point x="329" y="740" type="line"/>
      <point x="546" y="740"/>
      <point x="631" y="685"/>
      <point x="631" y="505" type="curve" smooth="yes"/>
      <point x="631" y="315"/>
      <point x="561" y="254"/>
      <point x="311" y="254" type="curve" smooth="yes"/>
      <point x="174" y="254" type="line"/>
      <point x="174" y="327" type="line"/>
      <point x="333" y="327" type="line" smooth="yes"/>
      <point x="512" y="327"/>
      <point x="552" y="382"/>
      <point x="552" y="505" type="curve" smooth="yes"/>
      <point x="552" y="627"/>
      <point x="490" y="668"/>
    </contour>
  </outline>
</glyph>
<glyph name="Q" format="1">
  <advance width="758"/>
  <unicode hex="0051"/>
  <outline>
    <contour>
      <point x="600" y="121" type="line"/>
      <point x="793" y="-70" type="line"/>
      <point x="754" y="-108" type="line"/>
      <point x="489" y="64" type="line"/>
    </contour>
    <component base="O" xOffset="8" yOffset="3"/>
  </outline>
</glyph>
<glyph name="T" format="1">
  <advance width="756"/>
  <unicode hex="0054"/>
  <outline>
    <contour>
      <point x="667" y="663" type="line"/>
      <point x="630" y="693" type="line"/>
      <point x="646" y="445" type="line"/>
      <point x="705" y="445" type="line"/>
      <point x="718" y="740" type="line"/>
      <point x="38" y="740" type="line"/>
      <point x="51" y="445" type="line"/>
      <point x="110" y="445" type="line"/>
      <point x="126" y="693" type="line"/>
      <point x="89" y="663" type="line"/>
    </contour>
    <contour>
      <point x="335" y="695" type="line"/>
      <point x="335" y="44" type="line"/>
      <point x="365" y="88" type="line"/>
      <point x="187" y="53" type="line"/>
      <point x="187" y="1" type="line"/>
      <point x="569" y="1" type="line"/>
      <point x="569" y="53" type="line"/>
      <point x="384" y="88" type="line"/>
      <point x="413" y="44" type="line"/>
      <point x="413" y="695" type="line"/>
    </contour>
  </outline>
</glyph>
<glyph name="U" format="1">
  <advance width="816"/>
  <unicode hex="0055"/>
  <outline>
    <contour>
      <point x="618" y="69" type="line"/>
      <point x="633" y="127" type="line"/>
      <point x="609" y="141" type="line"/>
      <point x="557" y="85"/>
      <point x="460" y="64"/>
      <point x="373" y="64" type="curve"/>
      <point x="240" y="64"/>
      <point x="174" y="104"/>
      <point x="174" y="212" type="curve"/>
      <point x="174" y="691" type="line"/>
      <point x="145" y="653" type="line"/>
      <point x="257" y="684" type="line"/>
      <point x="257" y="740" type="line"/>
      <point x="22" y="740" type="line"/>
      <point x="22" y="662" type="line"/>
      <point x="126" y="662" type="line"/>
      <point x="96" y="692" type="line"/>
      <point x="96" y="229" type="line"/>
      <point x="96" y="86"/>
      <point x="179" y="-18"/>
      <point x="330" y="-18" type="curve" smooth="yes"/>
      <point x="483" y="-18"/>
      <point x="541" y="3"/>
      <point x="561" y="69" type="curve"/>
    </contour>
    <contour>
      <point x="732" y="78" type="line"/>
      <point x="623" y="78" type="line"/>
      <point x="653" y="48" type="line"/>
      <point x="651" y="694" type="line"/>
      <point x="629" y="656" type="line"/>
      <point x="732" y="684" type="line"/>
      <point x="732" y="740" type="line"/>
      <point x="491" y="740" type="line"/>
      <point x="491" y="662" type="line"/>
      <point x="604" y="662" type="line"/>
      <point x="574" y="692" type="line"/>
      <point x="574" y="0" type="line"/>
      <point x="732" y="0" type="line"/>
    </contour>
  </outline>
</glyph>
<glyph name="a" format="1">
  <advance width="579"/>
  <unicode hex="0061"/>
  <outline>
    <contour>
      <point x="99" y="163" type="curve" smooth="yes"/>
      <point x="99" y="250"/>
      <point x="148" y="275"/>
      <point x="242" y="275" type="curve" smooth="yes"/>
      <point x="333" y="275"/>
      <point x="397" y="198"/>
      <point x="397" y="198" type="curve"/>
      <point x="417" y="229" type="line"/>
      <point x="358" y="313"/>
      <point x="302" y="329"/>
      <point x="232" y="329" type="curve" smooth="yes"/>
      <point x="101" y="329"/>
      <point x="33" y="277"/>
      <point x="33" y="154" type="curve" smooth="yes"/>
      <point x="33" y="39"/>
      <point x="99" y="-18"/>
      <point x="209" y="-18" type="curve" smooth="yes"/>
      <point x="306" y="-18"/>
      <point x="368" y="25"/>
      <point x="368" y="97" type="curve"/>
      <point x="348" y="62" type="line"/>
      <point x="432" y="62" type="line"/>
      <point x="417" y="162" type="line"/>
      <point x="392" y="123"/>
      <point x="312" y="38"/>
      <point x="233" y="38" type="curve" smooth="yes"/>
      <point x="150" y="38"/>
      <point x="99" y="81"/>
    </contour>
    <contour>
      <point x="512" y="56" type="line"/>
      <point x="413" y="107" type="line"/>
      <point x="452" y="53" type="line"/>
      <point x="452" y="333" type="line" smooth="yes"/>
      <point x="452" y="488"/>
      <point x="414" y="558"/>
      <point x="285" y="558" type="curve" smooth="yes"/>
      <point x="242" y="558"/>
      <point x="169" y="551"/>
      <point x="63" y="516" type="curve"/>
      <point x="81" y="461" type="line"/>
      <point x="129" y="477"/>
      <point x="200" y="498"/>
      <point x="257" y="498" type="curve" smooth="yes"/>
      <point x="366" y="498"/>
      <point x="386" y="421"/>
      <point x="386" y="305" type="curve" smooth="yes"/>
      <point x="385" y="0" type="line"/>
      <point x="512" y="0" type="line"/>
    </contour>
  </outline>
</glyph>
<glyph name="b" format="1">
  <advance width="620"/>
  <unicode hex="0062"/>
  <outline>
    <contour>
      <point x="126" y="0" type="line"/>
      <point x="126" y="682" type="line"/>
      <point x="175" y="667" type="line"/>
      <point x="49" y="667" type="line"/>
      <point x="49" y="760" type="line"/>
      <point x="196" y="760" type="line"/>
      <point x="196" y="94" type="line"/>
      <point x="183" y="87" type="line"/>
      <point x="161" y="0" type="line"/>
    </contour>
    <contour>
      <point x="507" y="276" type="curve"/>
      <point x="507" y="410"/>
      <point x="464" y="478"/>
      <point x="378" y="478" type="curve" smooth="yes"/>
      <point x="278" y="478"/>
      <point x="236" y="441"/>
      <point x="165" y="402" type="curve"/>
      <point x="165" y="456" type="line"/>
      <point x="290" y="480" type="line"/>
      <point x="218" y="438" type="line"/>
      <point x="218" y="504"/>
      <point x="284" y="554"/>
      <point x="390" y="554" type="curve" smooth="yes"/>
      <point x="494" y="554"/>
      <point x="580" y="513"/>
      <point x="580" y="265" type="curve" smooth="yes"/>
      <point x="580" y="44"/>
      <point x="484" y="-11"/>
      <point x="357" y="-11" type="curve" smooth="yes"/>
      <point x="246" y="-11"/>
      <point x="157" y="70"/>
      <point x="146" y="142" type="curve"/>
      <point x="172" y="163" type="line"/>
      <point x="205" y="101"/>
      <point x="254" y="48"/>
      <point x="354" y="48" type="curve" smooth="yes"/>
      <point x="448" y="48"/>
      <point x="507" y="115"/>
    </contour>
  </outline>
</glyph>
<glyph name="c" format="1">
  <advance width="556"/>
  <unicode hex="0063"/>
  <outline>
    <contour>
      <point x="511" y="62" type="curve"/>
      <point x="479" y="112" type="line"/>
      <point x="441" y="83"/>
      <point x="379" y="43"/>
      <point x="293" y="43" type="curve" smooth="yes"/>
      <point x="169" y="43"/>
      <point x="128" y="150"/>
      <point x="128" y="284" type="curve" smooth="yes"/>
      <point x="128" y="425"/>
      <point x="185" y="500"/>
      <point x="296" y="500" type="curve" smooth="yes"/>
      <point x="386" y="500"/>
      <point x="409" y="473"/>
      <point x="423" y="455" type="curve" smooth="yes"/>
      <point x="437" y="436"/>
      <point x="442" y="377"/>
      <point x="439" y="332" type="curve"/>
      <point x="497" y="332" type="line"/>
      <point x="509" y="527"/>
      <point x="447" y="555"/>
      <point x="288" y="555" type="curve" smooth="yes"/>
      <point x="138" y="555"/>
      <point x="48" y="472"/>
      <point x="48" y="270" type="curve" smooth="yes"/>
      <point x="48" y="66"/>
      <point x="133" y="-11"/>
      <point x="285" y="-11" type="curve" smooth="yes"/>
      <point x="373" y="-11"/>
      <point x="438" y="7"/>
    </contour>
  </outline>
</glyph>
<glyph name="d" format="1">
  <advance width="647"/>
  <unicode hex="0064"/>
  <outline>
    <contour>
      <point x="304" y="760" type="line"/>
      <point x="490" y="760" type="line"/>
      <point x="490" y="56" type="line"/>
      <point x="435" y="86" type="line"/>
      <point x="547" y="56" type="line"/>
      <point x="547" y="0" type="line"/>
      <point x="421" y="0" type="line"/>
      <point x="421" y="703" type="line"/>
      <point x="449" y="664" type="line"/>
      <point x="304" y="703" type="line"/>
    </contour>
    <contour>
      <point x="248" y="-10" type="curve" smooth="yes"/>
      <point x="145" y="-10"/>
      <point x="45" y="28"/>
      <point x="45" y="284" type="curve"/>
      <point x="45" y="506"/>
      <point x="148" y="555"/>
      <point x="269" y="555" type="curve" smooth="yes"/>
      <point x="380" y="555"/>
      <point x="462" y="471"/>
      <point x="473" y="399" type="curve"/>
      <point x="438" y="385" type="line"/>
      <point x="424" y="440"/>
      <point x="366" y="492"/>
      <point x="266" y="492" type="curve" smooth="yes"/>
      <point x="177" y="492"/>
      <point x="119" y="416"/>
      <point x="119" y="310" type="curve" smooth="yes"/>
      <point x="119" y="136"/>
      <point x="148" y="61"/>
      <point x="261" y="61" type="curve" smooth="yes"/>
      <point x="367" y="61"/>
      <point x="444" y="139"/>
      <point x="472" y="175" type="curve"/>
      <point x="455" y="53" type="line"/>
      <point x="371" y="53" type="line"/>
      <point x="438" y="121" type="line"/>
      <point x="438" y="31"/>
      <point x="354" y="-10"/>
    </contour>
  </outline>
</glyph>
<glyph name="e" format="1">
  <advance width="556"/>
  <unicode hex="0065"/>
  <outline>
    <contour>
      <point x="433" y="296" type="curve"/>
      <point x="468" y="300" type="line"/>
      <point x="258" y="300" type="line" smooth="yes"/>
      <point x="161" y="300"/>
      <point x="144" y="301"/>
      <point x="144" y="260" type="curve"/>
      <point x="90" y="260" type="line"/>
      <point x="90" y="238" type="line"/>
      <point x="500" y="238" type="line"/>
      <point x="506" y="381"/>
      <point x="495" y="462"/>
      <point x="448" y="508" type="curve" smooth="yes"/>
      <point x="411" y="543"/>
      <point x="366" y="554"/>
      <point x="282" y="554" type="curve" smooth="yes"/>
      <point x="129" y="554"/>
      <point x="50" y="470"/>
      <point x="50" y="270" type="curve" smooth="yes"/>
      <point x="50" y="69"/>
      <point x="124" y="-11"/>
      <point x="284" y="-11" type="curve" smooth="yes"/>
      <point x="370" y="-11"/>
      <point x="429" y="7"/>
      <point x="500" y="61" type="curve"/>
      <point x="469" y="120" type="line"/>
      <point x="433" y="92"/>
      <point x="377" y="57"/>
      <point x="291" y="57" type="curve" smooth="yes"/>
      <point x="181" y="57"/>
      <point x="126" y="137"/>
      <point x="126" y="262" type="curve" smooth="yes"/>
      <point x="126" y="442"/>
      <point x="189" y="490"/>
      <point x="296" y="490" type="curve" smooth="yes"/>
      <point x="409" y="490"/>
      <point x="439" y="421"/>
    </contour>
  </outline>
</glyph>
<glyph name="h" format="1">
  <advance width="649"/>
  <unicode hex="0068"/>
  <outline>
    <contour>
      <point x="591" y="56" type="line"/>
      <point x="487" y="106" type="line"/>
      <point x="537" y="53" type="line"/>
      <point x="537" y="369" type="line" smooth="yes"/>
      <point x="537" y="509"/>
      <point x="484" y="555"/>
      <point x="373" y="555" type="curve" smooth="yes"/>
      <point x="276" y="555"/>
      <point x="213" y="523"/>
      <point x="207" y="444" type="curve"/>
      <point x="258" y="477" type="line"/>
      <point x="173" y="477" type="line"/>
      <point x="173" y="393" type="line"/>
      <point x="200" y="446"/>
      <point x="293" y="468"/>
      <point x="349" y="468" type="curve" smooth="yes"/>
      <point x="427" y="468"/>
      <point x="471" y="441"/>
      <point x="471" y="404" type="curve" smooth="yes"/>
      <point x="471" y="53" type="line"/>
      <point x="499" y="95" type="line"/>
      <point x="414" y="56" type="line"/>
      <point x="414" y="-1" type="line"/>
      <point x="591" y="-1" type="line"/>
    </contour>
    <contour>
      <point x="248" y="-1" type="line"/>
      <point x="248" y="56" type="line"/>
      <point x="163" y="98" type="line"/>
      <point x="191" y="56" type="line"/>
      <point x="191" y="759" type="line"/>
      <point x="65" y="760" type="line"/>
      <point x="65" y="672" type="line"/>
      <point x="177" y="672" type="line"/>
      <point x="125" y="701" type="line"/>
      <point x="125" y="63" type="line"/>
      <point x="140" y="89" type="line"/>
      <point x="65" y="56" type="line"/>
      <point x="65" y="-1" type="line"/>
    </contour>
  </outline>
</glyph>
<glyph name="i" format="1">
  <advance width="341"/>
  <unicode hex="0069"/>
  <outline>
    <contour>
      <point x="310" y="-1" type="line"/>
      <point x="310" y="56" type="line"/>
      <point x="206" y="91" type="line"/>
      <point x="234" y="56" type="line"/>
      <point x="234" y="539" type="line"/>
      <point x="93" y="539" type="line"/>
      <point x="93" y="451" type="line"/>
      <point x="220" y="451" type="line"/>
      <point x="168" y="480" type="line"/>
      <point x="168" y="63" type="line"/>
      <point x="183" y="82" type="line"/>
      <point x="89" y="56" type="line"/>
      <point x="89" y="-1" type="line"/>
    </contour>
    <contour>
      <point x="172" y="657" type="curve"/>
      <point x="211" y="656"/>
      <point x="240" y="681"/>
      <point x="240" y="728" type="curve" smooth="yes"/>
      <point x="240" y="778"/>
      <point x="211" y="800"/>
      <point x="172" y="800" type="curve"/>
      <point x="131" y="800"/>
      <point x="112" y="776"/>
      <point x="112" y="729" type="curve" smooth="yes"/>
      <point x="112" y="679"/>
      <point x="131" y="657"/>
    </contour>
  </outline>
</glyph>
<glyph name="l" format="1">
  <advance width="331"/>
  <unicode hex="006C"/>
  <outline>
    <contour>
      <point x="305" y="-1" type="line"/>
      <point x="305" y="56" type="line"/>
      <point x="201" y="91" type="line"/>
      <point x="229" y="56" type="line"/>
      <point x="229" y="760" type="line"/>
      <point x="88" y="760" type="line"/>
      <point x="88" y="667" type="line"/>
      <point x="215" y="667" type="line"/>
      <point x="163" y="701" type="line"/>
      <point x="163" y="63" type="line"/>
      <point x="178" y="82" type="line"/>
      <point x="84" y="56" type="line"/>
      <point x="84" y="-1" type="line"/>
    </contour>
  </outline>
</glyph>
<glyph name="m" format="1">
  <advance width="948"/>
  <unicode hex="006D"/>
  <outline>
    <contour>
      <point x="597" y="56" type="line"/>
      <point x="495" y="106" type="line"/>
      <point x="543" y="53" type="line"/>
      <point x="543" y="359" type="line"/>
      <point x="543" y="517"/>
      <point x="499" y="555"/>
      <point x="398" y="555" type="curve" smooth="yes"/>
      <point x="303" y="555"/>
      <point x="246" y="527"/>
      <point x="240" y="449" type="curve"/>
      <point x="256" y="485" type="line"/>
      <point x="198" y="485" type="line"/>
      <point x="198" y="398" type="line"/>
      <point x="225" y="451"/>
      <point x="306" y="470"/>
      <point x="362" y="470" type="curve" smooth="yes"/>
      <point x="440" y="470"/>
      <point x="477" y="443"/>
      <point x="477" y="398" type="curve" smooth="yes"/>
      <point x="477" y="53" type="line"/>
      <point x="505" y="95" type="line"/>
      <point x="420" y="56" type="line"/>
      <point x="420" y="-1" type="line"/>
      <point x="597" y="-1" type="line"/>
    </contour>
    <contour>
      <point x="282" y="-1" type="line"/>
      <point x="282" y="56" type="line"/>
      <point x="197" y="98" type="line"/>
      <point x="225" y="56" type="line"/>
      <point x="225" y="539" type="line"/>
      <point x="99" y="539" type="line"/>
      <point x="99" y="451" type="line"/>
      <point x="211" y="451" type="line"/>
      <point x="159" y="480" type="line"/>
      <point x="159" y="63" type="line"/>
      <point x="174" y="89" type="line"/>
      <point x="99" y="56" type="line"/>
      <point x="99" y="-1" type="line"/>
    </contour>
    <contour>
      <point x="915" y="56" type="line"/>
      <point x="817" y="105" type="line"/>
      <point x="861" y="53" type="line"/>
      <point x="861" y="359" type="line"/>
      <point x="861" y="507"/>
      <point x="812" y="555"/>
      <point x="708" y="555" type="curve" smooth="yes"/>
      <point x="612" y="555"/>
      <point x="559" y="527"/>
      <point x="553" y="449" type="curve"/>
      <point x="574" y="485" type="line"/>
      <point x="506" y="485" type="line"/>
      <point x="504" y="382" type="line"/>
      <point x="531" y="435"/>
      <point x="620" y="470"/>
      <point x="676" y="470" type="curve" smooth="yes"/>
      <point x="754" y="470"/>
      <point x="795" y="443"/>
      <point x="795" y="398" type="curve" smooth="yes"/>
      <point x="795" y="53" type="line"/>
      <point x="823" y="95" type="line"/>
      <point x="738" y="56" type="line"/>
      <point x="738" y="-1" type="line"/>
      <point x="915" y="-1" type="line"/>
    </contour>
  </outline>
</glyph>
<glyph name="n" format="1">
  <advance width="649"/>
  <unicode hex="006E"/>
  <outline>
    <contour>
      <point x="620" y="56" type="line"/>
      <point x="508" y="111" type="line"/>
      <point x="566" y="53" type="line"/>
      <point x="566" y="369" type="line"/>
      <point x="566" y="509"/>
      <point x="513" y="555"/>
      <point x="402" y="555" type="curve" smooth="yes"/>
      <point x="305" y="555"/>
      <point x="243" y="520"/>
      <point x="237" y="441" type="curve"/>
      <point x="272" y="477" type="line"/>
      <point x="204" y="477" type="line"/>
      <point x="204" y="393" type="line"/>
      <point x="231" y="446"/>
      <point x="314" y="470"/>
      <point x="370" y="470" type="curve" smooth="yes"/>
      <point x="448" y="470"/>
      <point x="492" y="445"/>
      <point x="492" y="404" type="curve" smooth="yes"/>
      <point x="492" y="53" type="line"/>
      <point x="520" y="95" type="line"/>
      <point x="435" y="56" type="line"/>
      <point x="435" y="-1" type="line"/>
      <point x="620" y="-1" type="line"/>
    </contour>
    <contour>
      <point x="278" y="-1" type="line"/>
      <point x="278" y="56" type="line"/>
      <point x="193" y="98" type="line"/>
      <point x="221" y="56" type="line"/>
      <point x="221" y="539" type="line"/>
      <point x="87" y="539" type="line"/>
      <point x="87" y="451" type="line"/>
      <point x="199" y="451" type="line"/>
      <point x="147" y="480" type="line"/>
      <point x="147" y="63" type="line"/>
      <point x="162" y="89" type="line"/>
      <point x="87" y="56" type="line"/>
      <point x="87" y="-1" type="line"/>
    </contour>
  </outline>
</glyph>
<glyph name="o" format="1">
  <advance width="596"/>
  <unicode hex="006F"/>
  <outline>
    <contour>
      <point x="298" y="-18" type="curve"/>
      <point x="469" y="-18"/>
      <point x="545" y="60"/>
      <point x="545" y="268" type="curve" smooth="yes"/>
      <point x="545" y="485"/>
      <point x="466" y="558"/>
      <point x="298" y="558" type="curve" smooth="yes"/>
      <point x="128" y="558"/>
      <point x="50" y="481"/>
      <point x="50" y="273" type="curve" smooth="yes"/>
      <point x="50" y="56"/>
      <point x="130" y="-18"/>
    </contour>
    <contour>
      <point x="133" y="301" type="curve" smooth="yes"/>
      <point x="133" y="406"/>
      <point x="165" y="488"/>
      <point x="304" y="488" type="curve" smooth="yes"/>
      <point x="440" y="488"/>
      <point x="462" y="425"/>
      <point x="462" y="239" type="curve" smooth="yes"/>
      <point x="462" y="137"/>
      <point x="436" y="52"/>
      <point x="292" y="52" type="curve" smooth="yes"/>
      <point x="157" y="52"/>
      <point x="133" y="115"/>
    </contour>
  </outline>
</glyph>
<glyph name="p" format="1">
  <advance width="647"/>
  <unicode hex="0070"/>
  <outline>
    <contour>
      <point x="374" y="-12" type="curve" smooth="yes"/>
      <point x="271" y="-12"/>
      <point x="196" y="67"/>
      <point x="186" y="125" type="curve"/>
      <point x="193" y="165" type="line"/>
      <point x="226" y="102"/>
      <point x="287" y="49"/>
      <point x="371" y="49" type="curve" smooth="yes"/>
      <point x="473" y="49"/>
      <point x="528" y="123"/>
      <point x="528" y="280" type="curve" smooth="yes"/>
      <point x="528" y="420"/>
      <point x="483" y="479"/>
      <point x="390" y="479" type="curve" smooth="yes"/>
      <point x="326" y="479"/>
      <point x="256" y="447"/>
      <point x="186" y="399" type="curve"/>
      <point x="210" y="483" type="line"/>
      <point x="281" y="483" type="line"/>
      <point x="240" y="469" type="line"/>
      <point x="240" y="525"/>
      <point x="327" y="555"/>
      <point x="414" y="555" type="curve" smooth="yes"/>
      <point x="532" y="555"/>
      <point x="601" y="479"/>
      <point x="601" y="278" type="curve" smooth="yes"/>
      <point x="601" y="16"/>
      <point x="483" y="-12"/>
    </contour>
    <contour>
      <point x="79" y="-210" type="line"/>
      <point x="79" y="-151" type="line"/>
      <point x="184" y="-131" type="line"/>
      <point x="154" y="-161" type="line"/>
      <point x="154" y="451" type="line"/>
      <point x="94" y="451" type="line"/>
      <point x="94" y="540" type="line"/>
      <point x="224" y="540" type="line"/>
      <point x="224" y="-156" type="line"/>
      <point x="191" y="-119" type="line"/>
      <point x="368" y="-162" type="line"/>
      <point x="368" y="-210" type="line"/>
    </contour>
  </outline>
</glyph>
<glyph name="q" format="1">
  <advance width="620"/>
  <unicode hex="0071"/>
  <outline>
    <contour>
      <point x="248" y="-11" type="curve" smooth="yes"/>
      <point x="145" y="-11"/>
      <point x="44" y="36"/>
      <point x="44" y="284" type="curve"/>
      <point x="44" y="508"/>
      <point x="139" y="554"/>
      <point x="265" y="554" type="curve" smooth="yes"/>
      <point x="376" y="554"/>
      <point x="460" y="465"/>
      <point x="471" y="393" type="curve"/>
      <point x="456" y="377" type="line"/>
      <point x="442" y="428"/>
      <point x="327" y="485"/>
      <point x="264" y="485" type="curve" smooth="yes"/>
      <point x="162" y="485"/>
      <point x="116" y="422"/>
      <point x="116" y="310" type="curve" smooth="yes"/>
      <point x="116" y="135"/>
      <point x="156" y="52"/>
      <point x="268" y="52" type="curve" smooth="yes"/>
      <point x="366" y="52"/>
      <point x="440" y="129"/>
      <point x="473" y="194" type="curve"/>
      <point x="468" y="47" type="line"/>
      <point x="320" y="47" type="line"/>
      <point x="413" y="89" type="line"/>
      <point x="413" y="31"/>
      <point x="354" y="-11"/>
    </contour>
    <contour>
      <point x="278" y="-210" type="line"/>
      <point x="278" y="-162" type="line"/>
      <point x="449" y="-120" type="line"/>
      <point x="421" y="-154" type="line"/>
      <point x="421" y="464" type="line"/>
      <point x="433" y="471" type="line"/>
      <point x="455" y="558" type="line"/>
      <point x="492" y="558" type="line"/>
      <point x="492" y="-156" type="line"/>
      <point x="462" y="-131" type="line"/>
      <point x="567" y="-151" type="line"/>
      <point x="567" y="-210" type="line"/>
    </contour>
  </outline>
</glyph>
<glyph name="r" format="1">
  <advance width="527"/>
  <unicode hex="0072"/>
  <outline>
    <contour>
      <point x="379" y="-1" type="line"/>
      <point x="379" y="57" type="line"/>
      <point x="193" y="89" type="line"/>
      <point x="241" y="56" type="line"/>
      <point x="241" y="539" type="line"/>
      <point x="95" y="539" type="line"/>
      <point x="95" y="451" type="line"/>
      <point x="207" y="451" type="line"/>
      <point x="173" y="480" type="line"/>
      <point x="173" y="63" type="line"/>
      <point x="204" y="84" type="line"/>
      <point x="95" y="56" type="line"/>
      <point x="95" y="-1" type="line"/>
    </contour>
    <contour>
      <point x="481" y="332" type="line"/>
      <point x="506" y="500"/>
      <point x="477" y="554"/>
      <point x="384" y="554" type="curve" smooth="yes"/>
      <point x="312" y="554"/>
      <point x="258" y="519"/>
      <point x="257" y="456" type="curve"/>
      <point x="289" y="477" type="line"/>
      <point x="223" y="477" type="line"/>
      <point x="220" y="403" type="line"/>
      <point x="249" y="443"/>
      <point x="311" y="465"/>
      <point x="355" y="465" type="curve" smooth="yes"/>
      <point x="421" y="465"/>
      <point x="426" y="389"/>
      <point x="432" y="331" type="curve"/>
    </contour>
  </outline>
</glyph>
<glyph name="u" format="1">
  <advance width="646"/>
  <unicode hex="0075"/>
  <outline>
    <contour>
      <point x="8" y="484" type="line"/>
      <point x="130" y="429" type="line"/>
      <point x="72" y="487" type="line"/>
      <point x="72" y="171" type="line"/>
      <point x="72" y="31"/>
      <point x="127" y="-15"/>
      <point x="238" y="-15" type="curve" smooth="yes"/>
      <point x="335" y="-15"/>
      <point x="396" y="16"/>
      <point x="402" y="100" type="curve"/>
      <point x="367" y="64" type="line"/>
      <point x="436" y="42" type="line"/>
      <point x="437" y="146" type="line"/>
      <point x="410" y="93"/>
      <point x="326" y="75"/>
      <point x="270" y="75" type="curve" smooth="yes"/>
      <point x="192" y="75"/>
      <point x="146" y="98"/>
      <point x="146" y="135" type="curve" smooth="yes"/>
      <point x="146" y="541" type="line"/>
      <point x="8" y="541" type="line"/>
    </contour>
    <contour>
      <point x="350" y="541" type="line"/>
      <point x="350" y="484" type="line"/>
      <point x="445" y="440" type="line"/>
      <point x="417" y="484" type="line"/>
      <point x="417" y="1" type="line"/>
      <point x="551" y="1" type="line"/>
      <point x="551" y="56" type="line"/>
      <point x="439" y="99" type="line"/>
      <point x="491" y="60" type="line"/>
      <point x="491" y="541" type="line"/>
    </contour>
  </outline>
</glyph>
<glyph name="Ntilde" format="1">
  <advance width="784"/>
  <unicode hex="00D1"/>
  <outline>
    <contour>
      <point x="231" y="832" type="curve"/>
      <point x="215" y="847" type="line"/>
      <point x="215" y="929"/>
      <point x="211" y="1020"/>
      <point x="333" y="1020" type="curve" smooth="yes"/>
      <point x="388" y="1020"/>
      <point x="421" y="1015"/>
      <point x="453" y="969" type="curve"/>
      <point x="478" y="931"/>
      <point x="488" y="926"/>
      <point x="534" y="926" type="curve" smooth="yes"/>
      <point x="596" y="922"/>
      <point x="608" y="965"/>
      <point x="614" y="1000" type="curve"/>
      <point x="623" y="1000"/>
      <point x="640" y="1004"/>
      <point x="640" y="1016" type="curve"/>
      <point x="656" y="1010" type="line"/>
      <point x="656" y="927"/>
      <point x="659" y="825"/>
      <point x="536" y="825" type="curve" smooth="yes"/>
      <point x="480" y="825"/>
      <point x="452" y="835"/>
      <point x="417" y="884" type="curve"/>
      <point x="391" y="921"/>
      <point x="382" y="927"/>
      <point x="335" y="927" type="curve" smooth="yes"/>
      <point x="275" y="930"/>
      <point x="263" y="884"/>
      <point x="256" y="847" type="curve"/>
      <point x="248" y="847"/>
      <point x="231" y="843"/>
    </contour>
    <component base="N" xOffset="9"/>
  </outline>
</glyph>
<glyph name="ntilde" format="1">
  <advance width="656"/>
  <unicode hex="00F1"/>
  <outline>
    <contour>
      <point x="453" y="631" type="curve" smooth="yes"/>
      <point x="412" y="631"/>
      <point x="395" y="639"/>
      <point x="371" y="673" type="curve"/>
      <point x="356" y="694"/>
      <point x="348" y="702"/>
      <point x="319" y="702" type="curve" smooth="yes"/>
      <point x="279" y="706"/>
      <point x="269" y="675"/>
      <point x="263" y="651" type="curve"/>
      <point x="255" y="651"/>
      <point x="243" y="648"/>
      <point x="243" y="637" type="curve"/>
      <point x="228" y="646" type="line"/>
      <point x="228" y="708"/>
      <point x="227" y="772"/>
      <point x="314" y="772" type="curve" smooth="yes"/>
      <point x="354" y="772"/>
      <point x="375" y="768"/>
      <point x="397" y="736" type="curve"/>
      <point x="412" y="713"/>
      <point x="419" y="706"/>
      <point x="447" y="706" type="curve" smooth="yes"/>
      <point x="490" y="703"/>
      <point x="499" y="730"/>
      <point x="505" y="753" type="curve"/>
      <point x="513" y="753"/>
      <point x="524" y="757"/>
      <point x="524" y="769" type="curve"/>
      <point x="540" y="765" type="line"/>
      <point x="540" y="702"/>
      <point x="541" y="631"/>
    </contour>
    <component base="n" xOffset="30"/>
  </outline>
</glyph>
<glyph name="r.alt" format="1">
  <advance width="545"/>
  <outline>
    <contour>
      <point x="373" y="39" type="line"/>
      <point x="223" y="80" type="line"/>
      <point x="223" y="540" type="line"/>
      <point x="95" y="540" type="line"/>
      <point x="95" y="451" type="line"/>
      <point x="155" y="451" type="line"/>
      <point x="155" y="64" type="line"/>
      <point x="95" y="64" type="line"/>
      <point x="95" y="0" type="line"/>
      <point x="373" y="0" type="line"/>
    </contour>
    <contour>
      <point x="223" y="462" type="line"/>
      <point x="223" y="338" type="line"/>
      <point x="223" y="411"/>
      <point x="265" y="463"/>
      <point x="338" y="463" type="curve"/>
      <point x="401" y="463"/>
      <point x="480" y="427"/>
      <point x="480" y="427" type="curve"/>
      <point x="525" y="485" type="line"/>
      <point x="525" y="485"/>
      <point x="454" y="558"/>
      <point x="354" y="558" type="curve" smooth="yes"/>
      <point x="253" y="558"/>
      <point x="240" y="462"/>
      <point x="240" y="462" type="curve"/>
    </contour>
  </outline>
</glyph>
